<?xml version="1.0" standalone="no"?><!DOCTYPE svg PUBLIC "-//W3C//DTD SVG 1.1//EN" "http://www.w3.org/Graphics/SVG/1.1/DTD/svg11.dtd"><svg t="1772777465076" class="icon" viewBox="0 0 1024 1024" version="1.1" xmlns="http://www.w3.org/2000/svg" p-id="7967" xmlns:xlink="http://www.w3.org/1999/xlink" width="200" height="200"><path d="M968.5 501.2h-6.2c-5.4 0-9.8-4.4-9.8-9.8v-1.3c0-5.4 4.4-9.8 9.8-9.8h6.2c5.4 0 9.8 4.4 9.8 9.8v1.3c0 5.4-4.4 9.8-9.8 9.8z m-6.2-15.9c-2.6 0-4.8 2.2-4.8 4.8v1.3c0 2.6 2.2 4.8 4.8 4.8h6.2c2.6 0 4.8-2.2 4.8-4.8v-1.3c0-2.6-2.2-4.8-4.8-4.8h-6.2z" fill="#42DA56" p-id="7968"></path><path d="M991.8 587.6h-7.4c-1.4 0-2.5-1.1-2.5-2.5s1.1-2.5 2.5-2.5h7.4c1.4 0 2.5 1.1 2.5 2.5s-1.1 2.5-2.5 2.5zM968 587.6h-7.4c-1.4 0-2.5-1.1-2.5-2.5s1.1-2.5 2.5-2.5h7.4c1.4 0 2.5 1.1 2.5 2.5s-1.1 2.5-2.5 2.5zM970.3 581.5c-0.7 0-1.3-0.3-1.8-0.8l-5.3-5.7c-0.9-1-0.9-2.6 0.2-3.5 1-0.9 2.6-0.9 3.5 0.2l5.3 5.7c0.9 1 0.9 2.6-0.2 3.5-0.5 0.3-1.1 0.6-1.7 0.6zM988.3 599.8c-0.7 0-1.3-0.3-1.8-0.8l-5.3-5.7c-0.9-1-0.9-2.6 0.2-3.5s2.6-0.9 3.5 0.2l5.3 5.7c0.9 1 0.9 2.6-0.2 3.5-0.5 0.4-1.1 0.6-1.7 0.6zM983.1 580.9c-0.6 0-1.2-0.2-1.7-0.7-1-0.9-1.1-2.5-0.2-3.5l5.3-5.7c0.9-1 2.5-1.1 3.5-0.2 1 0.9 1.1 2.5 0.2 3.5l-5.3 5.7c-0.5 0.6-1.2 0.9-1.8 0.9zM976.4 580.7c-1.4 0-2.5-1.1-2.5-2.5v-8.1c0-1.4 1.1-2.5 2.5-2.5s2.5 1.1 2.5 2.5v8.1c0 1.4-1.1 2.5-2.5 2.5zM976.4 603.8c-1.4 0-2.5-1.1-2.5-2.5v-8.1c0-1.4 1.1-2.5 2.5-2.5s2.5 1.1 2.5 2.5v8.1c0 1.4-1.1 2.5-2.5 2.5zM965.2 599.7c-0.6 0-1.2-0.2-1.7-0.7-1-0.9-1.1-2.5-0.2-3.5l5.3-5.7c0.9-1 2.5-1.1 3.5-0.2 1 0.9 1.1 2.5 0.2 3.5l-5.3 5.7c-0.4 0.6-1.1 0.9-1.8 0.9z" fill="#F74E00" p-id="7969"></path><path d="M742.1 768.6H347.9c-64.6 0-117.4-52.8-117.4-117.4V367.7c0-64.6 52.8-117.4 117.4-117.4h394.2c64.6 0 117.4 52.8 117.4 117.4v283.5c0 64.6-52.8 117.4-117.4 117.4z" fill="#285399" p-id="7970"></path><path d="M621.6 768.6H347.9c-64.6 0-117.4-52.8-117.4-117.4V367.7c0-64.6 52.8-117.4 117.4-117.4h273.6c64.6 0 117.4 52.8 117.4 117.4v283.5c0.1 64.6-52.8 117.4-117.3 117.4z" fill="#3268CF" p-id="7971"></path><path d="M165.5 566.6c-8.3 0-15-6.7-15-15v-25.8c0-8.3 6.7-15 15-15s15 6.7 15 15v25.8c0 8.3-6.7 15-15 15zM688 780.7H277.8c-70.2 0-127.2-57.1-127.2-127.2v-51.2c0-8.3 6.7-15 15-15s15 6.7 15 15v51.2c0 53.6 43.6 97.2 97.2 97.2H688c53.6 0 97.2-43.6 97.2-97.2V437.9c0-8.3 6.7-15 15-15s15 6.7 15 15v215.7c0.1 70.1-57 127.1-127.2 127.1zM165.5 457.6c-8.3 0-15-6.7-15-15v-83c0-70.2 57.1-127.2 127.2-127.2H688c27.7 0 54.1 8.8 76.3 25.6 21.4 16.2 37.6 39.1 45.4 64.6 2.4 7.9-2 16.3-9.9 18.7-7.9 2.4-16.3-2-18.7-9.9-12.4-40.6-50.7-68.9-93-68.9H277.8c-53.6 0-97.2 43.6-97.2 97.2v83c-0.1 8.2-6.8 14.9-15.1 14.9z" fill="#1A1A1A" p-id="7972"></path><path d="M380.6 486.3c-33.6 0-60.9-25.2-60.9-56.1 0-30.9 27.3-56.1 60.9-56.1 33.6 0 60.9 25.2 60.9 56.1 0 30.9-27.3 56.1-60.9 56.1z m0-82.2c-17 0-30.9 11.7-30.9 26.1 0 14.4 13.9 26.1 30.9 26.1s30.9-11.7 30.9-26.1c0-14.4-13.9-26.1-30.9-26.1z" fill="#FFFFFF" p-id="7973"></path><path d="M368.6 589.6c-31.2 0-78.3 0-79.5-65.4v-0.1c-0.2-19 5.2-34.2 15.9-45.1 18-18.2 47-20.7 75.5-20.7 35.6 0 89.5 0 91.5 65.2v1.4c-1.7 27.8-12.1 46-31.8 55.8-16.7 8.3-37.8 9-59.7 9h-6.1c-1.9-0.1-3.8-0.1-5.8-0.1z m-49.5-65.9c0.4 24.4 8.4 29 11.4 30.7 8.3 4.8 22.7 5.2 38.1 5.2h12c45.6 0 59.4-4.7 61.5-35.9-1.1-30.8-15-35.4-61.5-35.4-21 0-43.9 1.4-54.2 11.8-5 5-7.4 12.7-7.3 23.6zM679.8 428h-83.2c-8.3 0-15-6.7-15-15s6.7-15 15-15h83.2c8.3 0 15 6.7 15 15s-6.7 15-15 15zM551.7 428h-17.3c-8.3 0-15-6.7-15-15s6.7-15 15-15h17.3c8.3 0 15 6.7 15 15s-6.7 15-15 15zM678.9 493H533.6c-8.3 0-15-6.7-15-15s6.7-15 15-15H679c8.3 0 15 6.7 15 15s-6.8 15-15.1 15zM676.9 563.7H531.6c-8.3 0-15-6.7-15-15s6.7-15 15-15H677c8.3 0 15 6.7 15 15s-6.8 15-15.1 15zM677.9 664.1H653c-8.3 0-15-6.7-15-15s6.7-15 15-15h24.9c8.3 0 15 6.7 15 15s-6.7 15-15 15zM613.9 664.1H306c-8.3 0-15-6.7-15-15s6.7-15 15-15h307.8c8.3 0 15 6.7 15 15s-6.7 15-14.9 15zM264.1 371.6c-7.5 0-13.9-5.6-14.9-13.1-0.1-0.4-0.1-0.8-0.1-1.3-0.9-8.2 5.1-15.6 13.4-16.5 8.2-0.9 15.6 5.1 16.5 13.4 0 0.2 0 0.4 0.1 0.7 1 8.2-4.8 15.7-13 16.7-0.8 0.1-1.4 0.1-2 0.1zM279.8 336.2c-2.8 0-5.6-0.8-8.1-2.4-7-4.5-9-13.8-4.5-20.7 13.8-21.5 36.4-34.1 37.3-34.7 7.3-4 16.4-1.4 20.4 5.9 4 7.2 1.4 16.3-5.8 20.4-0.3 0.2-17.1 9.8-26.6 24.6-2.9 4.5-7.8 6.9-12.7 6.9z" fill="#FFFFFF" p-id="7974"></path><path d="M800.3 403.2c-0.1 0-0.1 0 0 0-8.3 0-15-6.7-15-15v-2.9c0-8.3 6.7-15 15-15s15 6.7 15 15v2.9c-0.1 8.3-6.8 15-15 15zM987.5 874.6h-20.4c-8.3 0-15-6.7-15-15s6.7-15 15-15h20.4c8.3 0 15 6.7 15 15s-6.7 15-15 15zM917.5 874.6H484.3c-8.3 0-15-6.7-15-15s6.7-15 15-15h433.2c8.3 0 15 6.7 15 15s-6.7 15-15 15z" fill="#1A1A1A" p-id="7975"></path><path d="M515.9 874.6H253.5c-8.3 0-15-6.7-15-15s6.7-15 15-15h262.4c8.3 0 15 6.7 15 15s-6.7 15-15 15zM154.5 874.6H36.8c-8.3 0-15-6.7-15-15s6.7-15 15-15h117.7c8.3 0 15 6.7 15 15s-6.7 15-15 15z" fill="#1A1A1A" p-id="7976"></path><path d="M54.3 304.3c-0.8 0-1.5-0.7-1.5-1.5v-38.7c0-0.8 0.7-1.5 1.5-1.5s1.5 0.7 1.5 1.5v38.7c0 0.8-0.7 1.5-1.5 1.5z" fill="#F74E00" p-id="7977"></path><path d="M42.2 298.9c-0.4 0-0.7-0.1-1-0.4-0.6-0.6-0.7-1.5-0.1-2.1L66.2 269c0.6-0.6 1.5-0.7 2.1-0.1 0.6 0.6 0.7 1.5 0.1 2.1l-25.1 27.4c-0.3 0.4-0.7 0.5-1.1 0.5z" fill="#F74E00" p-id="7978"></path><path d="M67.4 298.6c-0.4 0-0.8-0.2-1.1-0.5l-25.1-27.4c-0.6-0.6-0.5-1.6 0.1-2.1 0.6-0.6 1.6-0.5 2.1 0.1l25.1 27.4c0.6 0.6 0.5 1.6-0.1 2.1-0.3 0.3-0.6 0.4-1 0.4z" fill="#F74E00" p-id="7979"></path><path d="M72 284.9H36.5c-0.8 0-1.5-0.7-1.5-1.5s0.7-1.5 1.5-1.5H72c0.8 0 1.5 0.7 1.5 1.5s-0.6 1.5-1.5 1.5z" fill="#F74E00" p-id="7980"></path><path d="M120.5 466.1h-7.4c-1.4 0-2.5-1.1-2.5-2.5s1.1-2.5 2.5-2.5h7.4c1.4 0 2.5 1.1 2.5 2.5s-1.1 2.5-2.5 2.5zM96.7 466.1h-7.4c-1.4 0-2.5-1.1-2.5-2.5s1.1-2.5 2.5-2.5h7.4c1.4 0 2.5 1.1 2.5 2.5s-1.1 2.5-2.5 2.5zM99 460c-0.7 0-1.3-0.3-1.8-0.8l-5.3-5.7c-0.9-1-0.9-2.6 0.2-3.5 1-0.9 2.6-0.9 3.5 0.2l5.3 5.7c0.9 1 0.9 2.6-0.2 3.5-0.5 0.4-1.1 0.6-1.7 0.6zM117.1 478.3c-0.7 0-1.3-0.3-1.8-0.8l-5.3-5.7c-0.9-1-0.9-2.6 0.2-3.5 1-0.9 2.6-0.9 3.5 0.2l5.3 5.7c0.9 1 0.9 2.6-0.2 3.5-0.5 0.4-1.1 0.6-1.7 0.6zM111.8 459.4c-0.6 0-1.2-0.2-1.7-0.7-1-0.9-1.1-2.5-0.2-3.5l5.3-5.7c0.9-1 2.5-1.1 3.5-0.2 1 0.9 1.1 2.5 0.2 3.5l-5.3 5.7c-0.4 0.7-1.1 0.9-1.8 0.9zM105.2 459.2c-1.4 0-2.5-1.1-2.5-2.5v-8.1c0-1.4 1.1-2.5 2.5-2.5s2.5 1.1 2.5 2.5v8.1c0 1.4-1.1 2.5-2.5 2.5zM105.2 482.3c-1.4 0-2.5-1.1-2.5-2.5v-8.1c0-1.4 1.1-2.5 2.5-2.5s2.5 1.1 2.5 2.5v8.1c0 1.4-1.1 2.5-2.5 2.5zM94 478.2c-0.6 0-1.2-0.2-1.7-0.7-1-0.9-1.1-2.5-0.2-3.5l5.3-5.7c0.9-1 2.5-1.1 3.5-0.2 1 0.9 1.1 2.5 0.2 3.5l-5.3 5.7c-0.5 0.6-1.2 0.9-1.8 0.9z" fill="#42DA56" p-id="7981"></path><path d="M132.1 264.6H128c-3.1 0-5.7-2.5-5.7-5.7v-1c0-3.1 2.5-5.7 5.7-5.7h4.2c3.1 0 5.7 2.5 5.7 5.7v1c-0.1 3.2-2.7 5.7-5.8 5.7z" fill="#3268CF" p-id="7982"></path><path d="M90.6 586.6c-2.5 0-4.5-2-4.5-4.5v-0.8c0-2.5 2-4.5 4.5-4.5s4.5 2 4.5 4.5v0.8c-0.1 2.5-2.1 4.5-4.5 4.5z" fill="#F74E00" p-id="7983"></path><path d="M57.1 394.6c-7.3 0-13.2-6-13.2-13.2V379c0-7.3 6-13.2 13.2-13.2 7.3 0 13.2 6 13.2 13.2v2.4c0 7.2-5.9 13.2-13.2 13.2z" fill="#42DA56" p-id="7984"></path><path d="M965.2 440.4H959c-5.4 0-9.8-4.4-9.8-9.8v-1.3c0-5.4 4.4-9.8 9.8-9.8h6.2c5.4 0 9.8 4.4 9.8 9.8v1.3c0 5.4-4.4 9.8-9.8 9.8z m-6.2-15.9c-2.6 0-4.8 2.2-4.8 4.8v1.3c0 2.6 2.2 4.8 4.8 4.8h6.2c2.6 0 4.8-2.2 4.8-4.8v-1.3c0-2.6-2.2-4.8-4.8-4.8H959z" fill="#42DA56" p-id="7985"></path><path d="M915.6 370.5c-0.8 0-1.5-0.7-1.5-1.5v-23.4c0-0.8 0.7-1.5 1.5-1.5s1.5 0.7 1.5 1.5V369c0 0.9-0.7 1.5-1.5 1.5z" fill="#0000FF" p-id="7986"></path><path d="M908.3 367.3c-0.4 0-0.7-0.1-1-0.4-0.6-0.6-0.7-1.5-0.1-2.1l15.2-16.6c0.6-0.6 1.5-0.7 2.1-0.1 0.6 0.6 0.7 1.5 0.1 2.1l-15.2 16.6c-0.3 0.3-0.7 0.5-1.1 0.5z" fill="#0000FF" p-id="7987"></path><path d="M923.5 367.1c-0.4 0-0.8-0.2-1.1-0.5L907.2 350c-0.6-0.6-0.5-1.6 0.1-2.1 0.6-0.6 1.6-0.5 2.1 0.1l15.2 16.6c0.6 0.6 0.5 1.6-0.1 2.1-0.3 0.3-0.6 0.4-1 0.4z" fill="#0000FF" p-id="7988"></path><path d="M926.3 358.8h-21.5c-0.8 0-1.5-0.7-1.5-1.5s0.7-1.5 1.5-1.5h21.5c0.8 0 1.5 0.7 1.5 1.5s-0.7 1.5-1.5 1.5z" fill="#0000FF" p-id="7989"></path><path d="M967.8 526.8h-7.4c-1.4 0-2.5-1.1-2.5-2.5s1.1-2.5 2.5-2.5h7.4c1.4 0 2.5 1.1 2.5 2.5s-1.2 2.5-2.5 2.5zM944 526.8h-7.4c-1.4 0-2.5-1.1-2.5-2.5s1.1-2.5 2.5-2.5h7.4c1.4 0 2.5 1.1 2.5 2.5s-1.2 2.5-2.5 2.5zM946.2 520.6c-0.7 0-1.3-0.3-1.8-0.8l-5.3-5.7c-0.9-1-0.9-2.6 0.2-3.5 1-0.9 2.6-0.9 3.5 0.2l5.3 5.7c0.9 1 0.9 2.6-0.2 3.5-0.4 0.4-1.1 0.6-1.7 0.6zM964.3 539c-0.7 0-1.3-0.3-1.8-0.8l-5.3-5.7c-0.9-1-0.9-2.6 0.2-3.5 1-0.9 2.6-0.9 3.5 0.2l5.3 5.7c0.9 1 0.9 2.6-0.2 3.5-0.5 0.4-1.1 0.6-1.7 0.6zM959 520.1c-0.6 0-1.2-0.2-1.7-0.7-1-0.9-1.1-2.5-0.2-3.5l5.3-5.7c0.9-1 2.5-1.1 3.5-0.2 1 0.9 1.1 2.5 0.2 3.5l-5.3 5.7c-0.4 0.6-1.1 0.9-1.8 0.9zM952.4 519.9c-1.4 0-2.5-1.1-2.5-2.5v-8.1c0-1.4 1.1-2.5 2.5-2.5s2.5 1.1 2.5 2.5v8.1c0 1.3-1.1 2.5-2.5 2.5zM952.4 543c-1.4 0-2.5-1.1-2.5-2.5v-8.1c0-1.4 1.1-2.5 2.5-2.5s2.5 1.1 2.5 2.5v8.1c0 1.4-1.1 2.5-2.5 2.5zM941.2 538.9c-0.6 0-1.2-0.2-1.7-0.7-1-0.9-1.1-2.5-0.2-3.5l5.3-5.7c0.9-1 2.5-1.1 3.5-0.2 1 0.9 1.1 2.5 0.2 3.5L943 538c-0.5 0.6-1.1 0.9-1.8 0.9z" fill="#F74E00" p-id="7990"></path><path d="M904.2 608.6h-4.3c-1.2 0-2.1-1-2.1-2.1v-0.4c0-1.2 1-2.1 2.1-2.1h4.3c1.2 0 2.1 1 2.1 2.1v0.4c0 1.2-0.9 2.1-2.1 2.1z" fill="#3268CF" p-id="7991"></path><path d="M905.4 493.3h-9.3c-4 0-7.2-3.2-7.2-7.2v-0.8c0-4 3.2-7.2 7.2-7.2h9.3c4 0 7.2 3.2 7.2 7.2v0.8c0 4-3.2 7.2-7.2 7.2z m-9.3-10.2c-1.2 0-2.2 1-2.2 2.2v0.8c0 1.2 1 2.2 2.2 2.2h9.3c1.2 0 2.2-1 2.2-2.2v-0.8c0-1.2-1-2.2-2.2-2.2h-9.3z" fill="#F74E00" p-id="7992"></path><path d="M893.9 280.9a5.7 6.3 0 1 0 11.4 0 5.7 6.3 0 1 0-11.4 0Z" fill="#3268CF" p-id="7993"></path></svg>