<?xml version="1.0" standalone="no"?><!DOCTYPE svg PUBLIC "-//W3C//DTD SVG 1.1//EN" "http://www.w3.org/Graphics/SVG/1.1/DTD/svg11.dtd"><svg t="1772780865371" class="icon" viewBox="0 0 1024 1024" version="1.1" xmlns="http://www.w3.org/2000/svg" p-id="5762" xmlns:xlink="http://www.w3.org/1999/xlink" width="200" height="200"><path d="M647.06 390.67c-35.804-35.804-93.852-35.804-129.656 0l-5.894 5.894-5.894-5.894c-35.804-35.804-93.852-35.804-129.656 0-35.802 35.802-35.804 93.852 0 129.656l135.55 135.55 135.55-135.55c35.804-35.802 35.804-93.85 0-129.656z" fill="#FA004B" p-id="5763"></path><path d="M511.51 678.04l-146.632-146.63c-20.276-20.278-31.444-47.238-31.444-75.912 0.002-28.676 11.168-55.632 31.444-75.91 40.174-40.168 104.516-41.786 146.632-4.858 42.118-36.928 106.462-35.31 146.634 4.858 41.854 41.856 41.854 109.962 0 151.82l-146.634 146.632z m-70.72-298.512c-19.462 0-38.928 7.408-53.746 22.228-29.638 29.636-29.638 77.854 0 107.488l124.466 124.468 124.468-124.468c29.636-29.636 29.636-77.856 0-107.488-14.354-14.356-33.442-22.262-53.746-22.262s-39.39 7.906-53.746 22.262l-16.98 16.972-16.974-16.972c-14.814-14.82-34.28-22.228-53.742-22.228zM733.518 495.282h31.346v33.436h-31.346zM800.392 480.654h31.346v62.694h-31.346zM863.086 447.216h31.346v127.478h-31.346zM929.96 399.152h31.346v225.698H929.96zM992.654 336.458H1024v351.086h-31.346zM257.044 495.282h31.346v33.436h-31.346zM192.262 480.654h31.346v62.694H192.262zM127.478 447.216h31.346v127.478H127.478zM62.694 399.152H94.04v225.698H62.694zM0 336.458h31.346v351.086H0zM495.282 733.518h33.436v31.346h-33.436zM480.654 800.392h62.694v31.346h-62.694zM447.216 863.086h127.478v31.346h-127.478zM399.152 929.96h225.698v31.346H399.152zM336.458 992.654h351.086V1024H336.458zM495.282 257.044h33.436v31.346h-33.436zM480.654 192.262h62.694v31.346h-62.694zM447.216 127.478h127.478v31.346h-127.478zM399.152 62.694h225.698V94.04H399.152zM336.458 0h351.086v31.346H336.458z" fill="#232323" p-id="5764"></path><path d="M623.206 463.934H591.86c0-10.448-6.716-16.766-17.166-16.766v-31.346c27.168 0 48.512 20.946 48.512 48.112z" fill="#FFFFFF" p-id="5765"></path></svg>