<?xml version="1.0" standalone="no"?><!DOCTYPE svg PUBLIC "-//W3C//DTD SVG 1.1//EN" "http://www.w3.org/Graphics/SVG/1.1/DTD/svg11.dtd"><svg t="1772781473903" class="icon" viewBox="0 0 1024 1024" version="1.1" xmlns="http://www.w3.org/2000/svg" p-id="21225" xmlns:xlink="http://www.w3.org/1999/xlink" width="200" height="200"><path d="M33.928 382.38c38.744 300.788 252.752 379.116 384.756 398.54-10.388-0.772-19.668-1.924-27.412-3.54 16.192 4.288 63.24-4.468 82.692 43.064 17.556 42.892 78.596 37.264 91.696-0.62 17.156-49.648 43.516-35.644 79.732-46.752 128.404-28.336 306.008-114.18 348.412-370.18 0 0 27.98-103-77.2-60.324-44.436 18.028-107.1 32.78-192.712 26.38-97.588-7.296-171.9 28.42-208.408 114.428-36.504-86.008-110.812-121.724-208.404-114.428-108.424 8.104-177.716-22.244-224.136-41.912C18.492 299.72 33.928 382.38 33.928 382.38z m164.784 91.776s225.496-5.896 237.58 154.22c0 0-183.396 54.188-237.58-154.22z m412.64 154.22c12.084-160.112 237.584-154.22 237.584-154.22-54.184 208.408-237.584 154.22-237.584 154.22z" fill="#BE6DC9" p-id="21226"></path><path d="M391.272 777.384a83.408 83.408 0 0 0-5.608-1.304c1.76 0.464 3.644 0.896 5.608 1.304z" fill="#BE6DC9" p-id="21227"></path></svg>